<svg enable-background="new 0 0 868 900" height="322.041826" viewBox="0 0 868 900" width="310.518672" xmlns="http://www.w3.org/2000/svg"><g fill="#283170"><path d="m447.7 209.4c-10.9 4-21.6 8.6-32 13.7-5.9 2.9-11.7 6-17.4 9.2 1.6 1.2 3.2 2.4 4.9 3.5 6.8 4.9 14 9.2 21.4 13.1 6.6 3.4 13.5 6.1 20.7 8 7 1.8 14.1 2.7 21.4 2.8h30.2c10.8.1 22.5.4 34.7 1.7 3.7.4 7.5.9 11.3 1.5l.8-11.9 1-15.1.5-7.3.4-7.1c.5-11.9.6-23.7.1-35.2-10.8 1.3-21.6 2.9-32.4 4.9-22.3 4.2-44.2 10.3-65.6 18.2z"/><path d="m333.2 409.5c2.9-2.5 5.6-5.1 8.2-7.8 4.9-5.2 9.4-10.7 13.4-16.6 7.5-10.9 12.5-20.2 17.4-27.8 4.4-7 9.3-13.7 14.8-19.8 3.7-4.1 7.6-7.9 11.7-11.5-3.9-1.8-7.7-3.6-11.3-5.6-10.8-5.8-21.1-12.4-31-19.7-8.4-6.2-16.1-12.4-23.5-18.5-1.3 1.4-2.6 2.8-3.8 4.2-8.1 9.4-15.4 19.4-21.8 30-6 9.9-11 18.8-15.2 24.8-1 1.4-1.9 2.6-2.8 3.8-1.4 11-2.1 22-2.1 33.1 0 2.2 0 4.4.1 6.5.1 2.2.1 4.3.3 6.4.2 4.3.6 8.8 1 13 .8 8.2 2.3 16.3 4.3 24.2.6 2.2 1.2 4.4 2 6.5 10.6-5.5 20.7-11.8 30.3-18.8 1.4-1 2.7-2.2 4-3.2 1.3-.9 2.6-1.9 4-3.2z"/><path d="m859.7 317.2c-4-14.2-10.4-27.6-18.8-39.8-7.9-11.3-17.1-21.5-27.6-30.4-9.8-8.3-20.4-15.7-31.5-22-21-11.7-43.3-20.6-66.5-26.8-11.2-3-22.4-5.5-33.5-7.5-11.2-2-22.2-3.6-33.4-4.9-7.7-.8-15.3-1.5-23.1-1.9.5 14 .2 27.8-.5 41.4l-.5 8.3-.3 4.1-.3 4-1.4 15.6-.4 3.8c6 .4 12 .9 18 1.5 9.3 1 18.6 2.4 27.8 4 9 1.7 18 3.8 26.8 6.3 16.7 4.5 32.8 11.2 47.9 19.9 14 8.3 25.6 18.6 32.5 29.3 3.3 4.9 5.7 10.4 7.2 16.1 1.3 5.2 1.7 10.6 1.1 15.9-.7 5.6-2.3 11-4.9 16-1.4 2.8-2.9 5.5-4.7 8-.8 1.2-2.2 2.9-3.3 4.4-1.1 1.6-2.5 3-3.7 4.6-4.9 5.8-10.3 11.1-16.1 16 9.9 12.6 19.2 25.6 28 39.1 6.1 9.4 11.8 19.1 17.3 29 12-9.3 23-19.8 32.9-31.3 2-2.5 4.2-4.9 6-7.5s3.8-5 5.9-8c4.1-6 7.7-12.2 10.9-18.7 6.6-13.5 10.7-28.1 12.3-43.1 1.4-15.2.1-30.6-4.1-45.4z"/><path d="m709 487.2c-9.4-14.3-19.6-28.1-30.5-41.3-18 8.5-37.1 16.9-56.8 26.8-10 5-20 10.4-30 16.6-2.5 1.6-4.9 3-7.6 4.8s-5.3 3.4-7.9 5.3c-5.4 3.8-10.5 7.9-15.5 12.2-5.1 4.6-9.9 9.4-14.4 14.6-4.4 5.1-8.5 10.5-12.4 16-3.7 5.3-6.9 10.6-9.8 15.4l-7.8 13.2c-2.4 4-4.7 7.6-7.1 11-2.3 3.4-4.7 6.6-7.3 9.6-5.2 6.3-10.9 12.1-17 17.5-6.5 5.8-13.4 11.2-20.5 16.2-7 5-14.4 9.5-22 13.6-16 8.6-32.7 15.6-50 21.2-35.9 11.4-73.1 18.1-110.7 19.9-18.7 1-37.4.7-56.1-.8-18.2-1.4-36.2-4.5-53.8-9.1-16.3-4.1-32-10.5-46.6-19-13.5-8-23.8-17.9-30.2-28.5-3.5-5.8-6.3-12-8.2-18.5-1.7-5.8-2.5-11.8-2.2-17.9.3-6.2 1.5-12.2 3.7-18 2.5-6.5 5.8-12.7 9.8-18.3 9.7-13.2 21.4-24.7 34.7-34.2 14.6-10.6 30.3-19.8 46.7-27.4l13.3-6.1 14-6.3 13.4-6c-2.6-6.4-4.8-13-6.7-19.7-3.3-11.9-5.6-24-7-36.3-.4-3-.7-6-.9-8.9s-.6-5.9-.7-8.9c0-1.6-.1-3.2-.2-4.8l-.8.3-28.6 12.2-14.4 6.2-7.2 3.1c-2.5 1.1-5.1 2.3-7.7 3.5-21.1 9.6-41.2 21.3-60.1 34.8-20.5 14.4-38.4 32.1-53.2 52.4-8 11.1-14.5 23.2-19.4 36-5.2 13.6-8.3 27.9-9 42.4-.7 14.6.9 29.2 4.8 43.3 3.7 13.4 9.2 26.2 16.3 38.1 7.2 12.2 16.1 23.3 26.4 33 9.6 9.1 20.1 17.2 31.5 24 21 12.5 43.7 22.1 67.4 28.3 22.3 6 45 10 68 12 22.4 2 45 2.4 67.5 1.3 44.9-2.1 89.4-10.1 132.2-23.7 22-7.1 43.4-16.1 63.8-27 10.6-5.7 20.9-12.1 30.7-19.1 9.7-7 19-14.5 27.8-22.5 4.5-4 8.9-8.5 13.2-13 4.3-4.6 8.5-9.4 12.3-14.4 7.5-9.7 14.3-20 20.3-30.7l7.5-13.6c2.3-4.2 4.4-7.7 6.5-10.9 3.8-5.9 8.4-11.3 13.6-16.1 2.8-2.5 5.7-4.8 8.7-7 1.5-1.1 3.2-2.2 4.9-3.4.8-.6 1.7-1.1 2.7-1.7l2.8-1.8c7.6-4.6 15.7-9 24.3-13.3 17.1-8.6 35.7-16.5 55.1-25.2 4-1.8 8-3.6 12-5.6-4.9-8.8-10.1-17.4-15.6-25.8z"/></g><path d="m624.1 693.4c5.3-11.9 10-24 14.3-36.3 7.4-21.4 13-43.4 16.8-65.8.9-5.7 1.8-11.4 2.4-17.2.3-2.9.6-5.8.9-8.7l.6-8.5c.3-4.7.5-9.5.6-14.3l-2.4 1.2c-8.5 4.3-16.7 8.6-24.3 13.3l-2.8 1.7c-.9.5-1.8 1.1-2.7 1.7-1.7 1.1-3.3 2.2-4.9 3.4-3 2.2-5.9 4.5-8.7 7-5.2 4.8-9.8 10.2-13.6 16.1-2 3.2-4.2 6.8-6.5 10.9l-7.6 13.7c-6 10.7-12.8 21-20.3 30.7-2.7 3.5-5.6 6.8-8.4 10 11.7 8.4 23.3 16.3 35.2 23.6 10.5 6.4 21 12.3 31.4 17.5z" fill="#4387bb"/><path d="m592 369.1c-7.3-4.6-14.9-8.8-22.8-12.5-7.3-3.4-14.9-6.3-22.7-8.5-2.8-.8-5.6-1.5-8.5-2.1-.3 11.7.1 23.4 1.2 35.1l.6 5c.3 1.7.5 3.4.8 5.2.6 3.5 1.5 7.5 2.5 11.1 1.8 6.8 4.2 13.4 7.1 19.8 5.2 11.8 10.3 20.9 14.2 29.2 3.8 7.7 7 15.6 9.7 23.7 2.3 7.3 4.1 14.7 5.3 22.2l4.8-3.2c2.6-1.7 5-3.2 7.6-4.8 10-6.1 20-11.6 30-16.6 9.6-4.8 19-9.3 28.3-13.6-.8-2.8-1.7-5.6-2.7-8.4-3.9-11.3-8.6-22.4-14-33-5-10.1-10-19.1-13-26.1-.6-1.4-1.1-2.7-1.6-3.9l-4-3c-7.6-5.8-15.1-10.9-22.8-15.6z" fill="#4387bb"/><path d="m550.4 741.7c-10.1-6.7-19.8-13.7-29.3-20.9-2.3 3.5-4.7 6.9-7.1 10.3-10.7 15-22.7 29.2-35.7 42.2-12 12.2-25.6 22.7-40.5 31.4-14 7.9-28.5 12.6-41.5 13.3-6.1.4-12.3-.2-18.3-1.7-5.6-1.5-10.9-3.8-15.8-7-5-3.3-9.4-7.3-13.1-12-2-2.5-3.7-5.1-5.3-7.8-1.7-2.9-3.2-5.9-4.4-9-3.1-7.3-5.3-15.1-6.6-22.9-15.5 2.1-31 3.6-46.6 4.3-11.6.6-23.2.7-34.8.5.5 4 1.1 8 1.8 12 2.4 13 6.1 25.8 11.3 38 11.1 26.7 30 49.4 54.2 65.1 12.5 8 26.3 13.7 40.7 17.1 14.1 3.2 28.5 4.2 42.9 3 13.6-1.2 26.9-4.2 39.8-8.7 12.1-4.3 23.8-9.7 34.8-16.2 20.6-12.3 39.5-27.3 56.2-44.4 8.1-8.2 15.8-16.8 23-25.4s14.1-17.4 20.7-26.6c3.1-4.3 6.1-8.6 9-13-12.5-6.8-24.2-14.1-35.4-21.6z" fill="#4387bb"/><path d="m205 396c.1 3 .4 6 .7 8.9s.6 6 .9 8.9c1.4 12.3 3.8 24.4 7 36.3 3.5 12.2 8 24.1 13.7 35.6 5.5 11.1 11.4 21 16.3 29.3 4.4 7.2 8.3 14.7 11.6 22.4 1.4 3.5 2.6 7.1 3.7 10.7 1.1 3.7 2 7.5 2.6 11.4.4 2 .7 4 1 6s.5 3.9.7 5.9c.4 4 .5 8.1.6 12.3 0 8.9-.4 17.9-1.2 26.8-1.6 18.6-5 38.4-7.8 59.4-.5 3.4-.9 6.9-1.4 10.4 9.6.1 19.2 0 28.8-.5 17.8-.9 35.5-2.8 53.1-5.8 2.2-17.9 4.9-36.6 6.7-56.6.9-11.1 1.6-22.7 1.4-34.8 0-6-.4-12.2-1-18.4-.3-3.1-.7-6.3-1.1-9.4-.5-3.1-.8-6.1-1.4-9.2-1-6.2-2.5-12.5-4.1-18.7-1.7-6.3-3.7-12.5-6.1-18.5-2.3-6-4.9-11.9-7.6-17.4s-5.4-10.6-8-15.4c-5.3-9.6-9.7-17.4-13-24.9-3.3-7.1-5.9-14.5-7.9-22.1-2.1-8-3.5-16-4.3-24.2-.5-4.2-.8-8.7-1-13-.2-2.1-.2-4.3-.3-6.4 0-2.2 0-4.3-.1-6.5.1-18 1.9-35.9 5.4-53.6 7.2-36.6 19.4-72.1 36.2-105.4 8.3-16.6 17.7-32.7 28.3-48 10.2-14.9 21.7-28.9 34.4-41.8 11.8-12 25.1-22.4 39.7-30.9 12.5-7.4 26.5-11.9 41-13.2 7-.5 14.1-.2 21.1.9 5.7.9 11.2 2.8 16.4 5.6 4.8 2.7 9 6.2 12.6 10.3 4.2 5.1 7.7 10.7 10.3 16.7 6 13.2 9.9 29.8 11.9 47.4 1.9 18.4 2.4 36.8 1.4 55.3l-.4 7.1-.5 7.3-1.1 15-.9 12.1c8.7 1.3 17.3 3.1 25.8 5.4 12.1 3.4 23.9 7.7 35.3 13 5.2 2.4 10.3 5 15.2 7.6v-1l2.9-30.8 1.4-15.6.3-4 .3-4.1.5-8.3c1.4-22.6.9-45.3-1.3-67.9-1.3-11.9-3.3-23.7-6-35.4-2.9-12.5-6.9-24.6-12-36.3-5.7-12.8-13.1-24.8-22-35.6-9.7-11.6-21.4-21.3-34.5-28.8-12.9-7.2-26.9-12.2-41.5-14.9-13.7-2.3-27.2-3.1-40.7-2.2-13.6.9-27 3.4-40 7.6-12.4 3.9-24.3 9.1-35.6 15.5-21.1 12-40.6 26.8-57.7 44-16.3 16.3-31.1 34-44.3 52.9-12.9 18.5-24.4 37.8-34.5 58-20.3 40.1-35 82.9-43.6 127-4.4 22.7-6.7 45.8-6.9 68.9 0 3 0 5.9.1 8.9.1 2.8.3 5.7.5 8.8z" fill="#4387bb"/><path d="m171.2 532c14.7 17.3 30.8 33.4 48.1 48.2 13.5 11.5 27.9 21.9 43 31v-.8c.9-8.9 1.3-17.8 1.2-26.8 0-4.2-.2-8.4-.6-12.3-.2-2-.4-3.9-.7-5.9s-.6-4-1-6c-.7-4-1.7-7.7-2.6-11.4-1-3.6-2.2-7.2-3.7-10.7-3.2-7.7-7.1-15.2-11.4-22.4-4.8-8.3-10.8-18.2-16.3-29.3-2.3-4.6-4.4-9.4-6.4-14.3l-1-1.4-13 5.8-14 6.3-13.3 6.1c-10.4 4.9-20.5 10.3-30.2 16.3 7 9.5 14.3 18.7 21.9 27.6z" fill="#74c9e3"/><path d="m455.9 585.1c-6.5-1.9-13-3.5-19.7-4.6-6.3-1.1-12.2-1.9-18-2.5-11.3-1.2-21.3-1.9-30.6-2.9-8.9-1-17.7-2.5-26.4-4.4-6.5-1.5-12.9-3.4-19.2-5.6.5 5.9.8 11.7.9 17.4.2 12-.4 23.6-1.4 34.8-.8 8.7-1.7 17.2-2.7 25.6 2 .5 3.9 1 5.8 1.4 11.5 2.4 23.1 4.2 34.8 5.4 11.2 1.2 21.8 1.8 31.1 2.7l2.1.2c10.3-4.1 20.3-8.8 30-14 7.6-4.1 14.9-8.6 22-13.6s14-10.4 20.5-16.1c2.4-2.1 4.6-4.2 6.7-6.4-5.1-3.5-10.4-6.7-16-9.4-6.3-3.2-13-5.9-19.9-8z" fill="#74c9e3"/><path d="m98.9 418.9c2.8 6 5.7 12 8.7 18 12.4-7.5 25.2-14.3 38.4-20.4 2.6-1.2 5.2-2.4 7.7-3.5l7.2-3.1 14.4-6.2 2-.9c-2.7-5.3-5.3-10.6-7.7-16-7.6-16.8-13.8-34.2-18.4-52-2.2-8.6-3.9-17.2-5.2-26-1.2-8.3-1.7-16.8-1.7-25.2.2-16.3 3.1-31.2 9-42.8 2.6-5.5 6.1-10.6 10.4-14.9 3.8-3.8 8.2-6.9 13.2-9 5.5-2.3 11.4-3.7 17.4-4.2 7.1-.5 14.3-.1 21.3 1.1 7.7 1.3 15.2 3.3 22.5 5.9 5.1-12.6 10.8-25 16.9-37.3 5.7-11.5 12-22.7 18.7-33.7-14.6-5.9-29.9-10.1-45.4-12.7-13.3-2.3-26.9-3-40.4-2-14.7 1.1-29 4.7-42.5 10.5-14 6.1-26.7 14.9-37.5 25.8-10.2 10.4-18.7 22.4-25.1 35.6-3 6.3-5.7 12.7-7.9 19.4-2.1 6.4-3.8 13-5.1 19.6-2.5 12.6-3.7 25.5-3.7 38.4.2 24 3.4 48 9.7 71.2 5.8 22 13.5 43.6 23.1 64.4z" fill="#74c9e3"/><path d="m834.3 566.9c-6-22.3-13.8-44-23.3-64.9-9.4-20.6-20.3-40.5-32.6-59.5-12.2-18.9-25.6-36.9-40.1-54-14.6-17.2-30.4-33.4-47.2-48.5-4.3-3.8-8.7-7.6-13.2-11.2-2.2-1.8-4.6-3.7-6.9-5.4l-6.7-5.1c-9.1-6.7-18.5-13.2-28.5-19.4-10.2-6.3-20.7-12.1-31.6-17.1-11.4-5.3-23.2-9.6-35.3-13-12.2-3.3-24.6-5.6-37.1-6.9-12.2-1.3-23.9-1.6-34.7-1.7h-30.2c-7.2-.2-14.4-1.3-21.4-3.2-7.2-1.9-14.1-4.6-20.7-8-7.5-3.9-14.7-8.3-21.5-13.2-14.7-10.3-30-23.4-46.4-36.8l-6.4-5.2c-1.7-1.4-3.5-2.7-5.2-4.1-5.8 9.6-11.3 19.4-16.4 29.5-7.1 14.2-13.4 28.8-18.8 43.8 14.4 12 29.3 25.1 46.7 37.9 9.8 7.3 20.2 13.9 31 19.7 11.7 6.2 24 11.2 36.8 14.8 13 3.6 26.3 5.6 39.8 6.1l2.4.1h6l8 .1 15.2.2c9.8.2 18.8.6 27.1 1.5 8 .9 15.9 2.4 23.7 4.6 7.8 2.3 15.4 5.1 22.7 8.6 7.8 3.7 15.4 7.9 22.8 12.5 7.6 4.7 15.2 10 22.7 15.6l5.7 4.4c1.8 1.4 3.5 2.7 5.3 4.1 3.5 2.8 7 5.8 10.4 8.8 14 12.5 27.1 25.9 39.2 40.2 12.2 14.3 23.5 29.4 33.8 45.2 10.2 15.6 19.3 32 27.1 48.9 7.7 16.5 14 33.7 18.7 51.4 4.4 16.3 6.7 33.2 6.6 50.1-.1 7.5-1 15.1-2.6 22.4-1.5 6.6-3.8 13-6.9 19.1-5.6 11-14.5 19.9-25.4 25.7-11.9 6.1-25.2 8.9-38.5 8-14-.5-30-4.8-46.1-11.5-17-7.1-33.4-15.6-49-25.4-11.8-7.3-23.5-15.2-35.2-23.6-1.3 1.5-2.6 3-4 4.4-4.3 4.5-8.7 8.9-13.2 13-8.8 8-18.1 15.5-27.8 22.5-5.1 3.6-10.3 7-15.5 10.3l.7.5c16.7 13.2 34 26.4 52.5 38.7 18.9 12.9 38.9 24.2 59.7 33.7 11.2 5 22.7 9.2 34.4 12.5 12.6 3.6 25.6 5.9 38.7 6.8 13.8.9 27.7 0 41.2-2.6 14-2.7 27.5-7.5 40.2-14 13-6.7 24.8-15.4 35.1-25.8 10.2-10.3 18.8-22.1 25.4-35 6.3-12.4 11-25.5 14-39.1 2.8-12.8 4.3-25.9 4.4-39-.1-24.5-3.2-48.9-9.6-72.5z" fill="#74c9e3"/></svg>